<mxfile modified="2020-10-19T03:47:14.047Z" host="app.diagrams.net" agent="5.0 (X11)" etag="bNwWoMJXyAOKQhgCFll_" version="13.8.0" type="github">
  <diagram id="f106602c-feb2-e66a-4537-3a34d633f6aa" name="Page-1">
    <mxGraphModel dx="796" dy="455" grid="1" gridSize="10" guides="1" tooltips="1" connect="1" arrows="1" fold="1" page="1" pageScale="1" pageWidth="1169" pageHeight="827" background="#ffffff" math="0" shadow="0">
      <root>
        <mxCell id="0" />
        <mxCell id="1" parent="0" />
        <mxCell id="jlQ2GOLAOd0pFuCtd0Cb-1039" style="edgeStyle=orthogonalEdgeStyle;rounded=0;orthogonalLoop=1;jettySize=auto;html=1;exitX=1;exitY=0.5;exitDx=0;exitDy=0;entryX=0;entryY=0.5;entryDx=0;entryDy=0;" parent="1" source="1036" target="dStMWNxRlU4IX113jJQJ-1057" edge="1">
          <mxGeometry relative="1" as="geometry" />
        </mxCell>
        <mxCell id="1036" value="Client" style="strokeColor=#dddddd;fillColor=#ffffff;shadow=1;strokeWidth=1;rounded=1;absoluteArcSize=1;arcSize=2;labelPosition=center;verticalLabelPosition=middle;align=center;verticalAlign=bottom;spacingLeft=0;fontColor=#999999;fontSize=12;whiteSpace=wrap;spacingBottom=2;html=1;" parent="1" vertex="1">
          <mxGeometry x="92" y="188.5" width="70" height="91" as="geometry" />
        </mxCell>
        <mxCell id="1037" value="" style="dashed=0;connectable=0;html=1;fillColor=#757575;strokeColor=none;shape=mxgraph.gcp2.desktop_and_mobile;part=1;" parent="1036" vertex="1">
          <mxGeometry x="0.5" width="50" height="33" relative="1" as="geometry">
            <mxPoint x="-25" y="18.5" as="offset" />
          </mxGeometry>
        </mxCell>
        <mxCell id="dStMWNxRlU4IX113jJQJ-1059" style="edgeStyle=orthogonalEdgeStyle;rounded=0;orthogonalLoop=1;jettySize=auto;html=1;exitX=1;exitY=0.25;exitDx=0;exitDy=0;entryX=0;entryY=0.25;entryDx=0;entryDy=0;" parent="1" source="dStMWNxRlU4IX113jJQJ-1057" target="dStMWNxRlU4IX113jJQJ-1062" edge="1">
          <mxGeometry relative="1" as="geometry">
            <mxPoint x="420" y="199" as="targetPoint" />
            <Array as="points">
              <mxPoint x="350" y="182" />
            </Array>
          </mxGeometry>
        </mxCell>
        <mxCell id="dStMWNxRlU4IX113jJQJ-1057" value="" style="strokeColor=#dddddd;shadow=1;strokeWidth=1;rounded=1;absoluteArcSize=1;arcSize=2;" parent="1" vertex="1">
          <mxGeometry x="200" y="122" width="150" height="224" as="geometry" />
        </mxCell>
        <mxCell id="dStMWNxRlU4IX113jJQJ-1058" value="Frontend" style="dashed=0;connectable=0;html=1;fillColor=#757575;strokeColor=none;shape=mxgraph.gcp2.frontend_platform_services;part=1;labelPosition=right;verticalLabelPosition=middle;align=left;verticalAlign=middle;spacingLeft=5;fontSize=12;" parent="dStMWNxRlU4IX113jJQJ-1057" vertex="1">
          <mxGeometry y="0.5" width="32" height="32" relative="1" as="geometry">
            <mxPoint x="5" y="-16" as="offset" />
          </mxGeometry>
        </mxCell>
        <mxCell id="dStMWNxRlU4IX113jJQJ-1065" style="edgeStyle=orthogonalEdgeStyle;rounded=0;orthogonalLoop=1;jettySize=auto;html=1;exitX=-0.013;exitY=0.79;exitDx=0;exitDy=0;exitPerimeter=0;" parent="1" source="dStMWNxRlU4IX113jJQJ-1062" edge="1">
          <mxGeometry relative="1" as="geometry">
            <mxPoint x="351" y="303" as="targetPoint" />
            <Array as="points">
              <mxPoint x="351" y="303" />
            </Array>
          </mxGeometry>
        </mxCell>
        <mxCell id="dStMWNxRlU4IX113jJQJ-1077" style="edgeStyle=orthogonalEdgeStyle;rounded=0;orthogonalLoop=1;jettySize=auto;html=1;exitX=1;exitY=0.25;exitDx=0;exitDy=0;entryX=-0.007;entryY=0.097;entryDx=0;entryDy=0;entryPerimeter=0;" parent="1" source="dStMWNxRlU4IX113jJQJ-1062" target="dStMWNxRlU4IX113jJQJ-1075" edge="1">
          <mxGeometry relative="1" as="geometry">
            <Array as="points">
              <mxPoint x="700" y="199" />
            </Array>
          </mxGeometry>
        </mxCell>
        <mxCell id="dStMWNxRlU4IX113jJQJ-1062" value="" style="strokeColor=#dddddd;shadow=1;strokeWidth=1;rounded=1;absoluteArcSize=1;arcSize=2;" parent="1" vertex="1">
          <mxGeometry x="550" y="126" width="150" height="224" as="geometry" />
        </mxCell>
        <mxCell id="dStMWNxRlU4IX113jJQJ-1063" value="Backend Python" style="dashed=0;connectable=0;html=1;fillColor=#757575;strokeColor=none;shape=mxgraph.gcp2.frontend_platform_services;part=1;labelPosition=right;verticalLabelPosition=middle;align=left;verticalAlign=middle;spacingLeft=5;fontSize=12;" parent="dStMWNxRlU4IX113jJQJ-1062" vertex="1">
          <mxGeometry y="0.5" width="32" height="32" relative="1" as="geometry">
            <mxPoint x="5" y="-16" as="offset" />
          </mxGeometry>
        </mxCell>
        <mxCell id="dStMWNxRlU4IX113jJQJ-1069" value="" style="shape=table;html=1;whiteSpace=wrap;startSize=0;container=1;collapsible=0;childLayout=tableLayout;strokeColor=none;" parent="1" vertex="1">
          <mxGeometry x="410" y="146" width="80" height="24" as="geometry" />
        </mxCell>
        <mxCell id="dStMWNxRlU4IX113jJQJ-1070" value="" style="shape=partialRectangle;html=1;whiteSpace=wrap;collapsible=0;dropTarget=0;pointerEvents=0;fillColor=none;top=0;left=0;bottom=0;right=0;points=[[0,0.5],[1,0.5]];portConstraint=eastwest;" parent="dStMWNxRlU4IX113jJQJ-1069" vertex="1">
          <mxGeometry width="80" height="24" as="geometry" />
        </mxCell>
        <mxCell id="dStMWNxRlU4IX113jJQJ-1071" value="API request" style="shape=partialRectangle;html=1;whiteSpace=wrap;connectable=0;overflow=hidden;fillColor=none;top=0;left=0;bottom=0;right=0;" parent="dStMWNxRlU4IX113jJQJ-1070" vertex="1">
          <mxGeometry width="80" height="24" as="geometry" />
        </mxCell>
        <mxCell id="dStMWNxRlU4IX113jJQJ-1083" style="edgeStyle=orthogonalEdgeStyle;rounded=0;orthogonalLoop=1;jettySize=auto;html=1;exitX=0;exitY=0.75;exitDx=0;exitDy=0;entryX=1;entryY=0.781;entryDx=0;entryDy=0;entryPerimeter=0;" parent="1" source="dStMWNxRlU4IX113jJQJ-1075" target="dStMWNxRlU4IX113jJQJ-1062" edge="1">
          <mxGeometry relative="1" as="geometry">
            <Array as="points">
              <mxPoint x="735" y="300" />
            </Array>
          </mxGeometry>
        </mxCell>
        <mxCell id="dStMWNxRlU4IX113jJQJ-1075" value="" style="strokeColor=#dddddd;shadow=1;strokeWidth=1;rounded=1;absoluteArcSize=1;arcSize=2;" parent="1" vertex="1">
          <mxGeometry x="770" y="184" width="150" height="155" as="geometry" />
        </mxCell>
        <mxCell id="dStMWNxRlU4IX113jJQJ-1076" value="&lt;font style=&quot;font-size: 18px&quot;&gt;Mongodb&lt;/font&gt;" style="dashed=0;connectable=0;html=1;fillColor=#5184F3;strokeColor=none;shape=mxgraph.gcp2.hexIcon;prIcon=cloud_sql;part=1;labelPosition=right;verticalLabelPosition=middle;align=left;verticalAlign=middle;spacingLeft=5;fontColor=#999999;fontSize=12;" parent="dStMWNxRlU4IX113jJQJ-1075" vertex="1">
          <mxGeometry y="0.5" width="44" height="39" relative="1" as="geometry">
            <mxPoint x="5" y="-19.5" as="offset" />
          </mxGeometry>
        </mxCell>
        <mxCell id="dStMWNxRlU4IX113jJQJ-1088" style="edgeStyle=orthogonalEdgeStyle;rounded=0;orthogonalLoop=1;jettySize=auto;html=1;exitX=1;exitY=0.5;exitDx=0;exitDy=0;entryX=0.5;entryY=1;entryDx=0;entryDy=0;" parent="1" source="dStMWNxRlU4IX113jJQJ-1086" target="dStMWNxRlU4IX113jJQJ-1075" edge="1">
          <mxGeometry relative="1" as="geometry" />
        </mxCell>
        <mxCell id="dStMWNxRlU4IX113jJQJ-1086" value="" style="strokeColor=#dddddd;shadow=1;strokeWidth=1;rounded=1;absoluteArcSize=1;arcSize=2;" parent="1" vertex="1">
          <mxGeometry x="550" y="390" width="150" height="110" as="geometry" />
        </mxCell>
        <mxCell id="dStMWNxRlU4IX113jJQJ-1087" value="Python ETL" style="dashed=0;connectable=0;html=1;fillColor=#757575;strokeColor=none;shape=mxgraph.gcp2.frontend_platform_services;part=1;labelPosition=right;verticalLabelPosition=middle;align=left;verticalAlign=middle;spacingLeft=5;fontSize=12;" parent="dStMWNxRlU4IX113jJQJ-1086" vertex="1">
          <mxGeometry y="0.5" width="32" height="32" relative="1" as="geometry">
            <mxPoint x="5" y="-16" as="offset" />
          </mxGeometry>
        </mxCell>
        <mxCell id="dStMWNxRlU4IX113jJQJ-1091" style="edgeStyle=orthogonalEdgeStyle;rounded=0;orthogonalLoop=1;jettySize=auto;html=1;entryX=0.453;entryY=0.991;entryDx=0;entryDy=0;entryPerimeter=0;" parent="1" source="dStMWNxRlU4IX113jJQJ-1090" target="dStMWNxRlU4IX113jJQJ-1086" edge="1">
          <mxGeometry relative="1" as="geometry" />
        </mxCell>
        <mxCell id="dStMWNxRlU4IX113jJQJ-1090" value="" style="outlineConnect=0;fontColor=#232F3E;gradientColor=none;fillColor=#116D5B;strokeColor=none;dashed=0;verticalLabelPosition=bottom;verticalAlign=top;align=center;html=1;fontSize=12;fontStyle=0;aspect=fixed;shape=mxgraph.aws4.transfer_for_sftp_resource;" parent="1" vertex="1">
          <mxGeometry x="585" y="530" width="66.26" height="68" as="geometry" />
        </mxCell>
        <mxCell id="dStMWNxRlU4IX113jJQJ-1052" value="" style="shape=table;html=1;whiteSpace=wrap;startSize=0;container=1;collapsible=0;childLayout=tableLayout;strokeColor=none;" parent="1" vertex="1">
          <mxGeometry x="410" y="188.5" width="80" height="42" as="geometry" />
        </mxCell>
        <mxCell id="dStMWNxRlU4IX113jJQJ-1053" value="" style="shape=partialRectangle;html=1;whiteSpace=wrap;collapsible=0;dropTarget=0;pointerEvents=0;fillColor=none;top=0;left=0;bottom=0;right=0;points=[[0,0.5],[1,0.5]];portConstraint=eastwest;" parent="dStMWNxRlU4IX113jJQJ-1052" vertex="1">
          <mxGeometry width="80" height="42" as="geometry" />
        </mxCell>
        <mxCell id="dStMWNxRlU4IX113jJQJ-1054" value="&lt;div style=&quot;font-size: 8px&quot;&gt;&lt;font style=&quot;font-size: 8px&quot;&gt;GET&lt;/font&gt;&lt;/div&gt;&lt;div style=&quot;font-size: 8px&quot;&gt;&lt;font style=&quot;font-size: 8px&quot;&gt;POST&lt;/font&gt;&lt;/div&gt;&lt;div style=&quot;font-size: 8px&quot;&gt;&lt;font style=&quot;font-size: 8px&quot;&gt;PUT&lt;/font&gt;&lt;/div&gt;&lt;div style=&quot;font-size: 8px&quot;&gt;&lt;font style=&quot;font-size: 8px&quot;&gt;DELETE&lt;br&gt;&lt;/font&gt;&lt;/div&gt;" style="shape=partialRectangle;html=1;whiteSpace=wrap;connectable=0;overflow=hidden;fillColor=none;top=0;left=0;bottom=0;right=0;" parent="dStMWNxRlU4IX113jJQJ-1053" vertex="1">
          <mxGeometry width="80" height="42" as="geometry" />
        </mxCell>
        <mxCell id="dStMWNxRlU4IX113jJQJ-1066" value="" style="shape=table;html=1;whiteSpace=wrap;startSize=0;container=1;collapsible=0;childLayout=tableLayout;strokeColor=none;" parent="1" vertex="1">
          <mxGeometry x="410" y="241.5" width="80" height="40" as="geometry" />
        </mxCell>
        <mxCell id="dStMWNxRlU4IX113jJQJ-1067" value="" style="shape=partialRectangle;html=1;whiteSpace=wrap;collapsible=0;dropTarget=0;pointerEvents=0;fillColor=none;top=0;left=0;bottom=0;right=0;points=[[0,0.5],[1,0.5]];portConstraint=eastwest;" parent="dStMWNxRlU4IX113jJQJ-1066" vertex="1">
          <mxGeometry width="80" height="40" as="geometry" />
        </mxCell>
        <mxCell id="dStMWNxRlU4IX113jJQJ-1068" value="Json Response" style="shape=partialRectangle;html=1;whiteSpace=wrap;connectable=0;overflow=hidden;fillColor=none;top=0;left=0;bottom=0;right=0;" parent="dStMWNxRlU4IX113jJQJ-1067" vertex="1">
          <mxGeometry width="80" height="40" as="geometry" />
        </mxCell>
        <mxCell id="dStMWNxRlU4IX113jJQJ-1072" value="" style="shape=table;html=1;whiteSpace=wrap;startSize=0;container=1;collapsible=0;childLayout=tableLayout;" parent="1" vertex="1">
          <mxGeometry x="370" y="310" width="160" height="40" as="geometry" />
        </mxCell>
        <mxCell id="dStMWNxRlU4IX113jJQJ-1073" value="" style="shape=partialRectangle;html=1;whiteSpace=wrap;collapsible=0;dropTarget=0;pointerEvents=0;fillColor=none;top=0;left=0;bottom=0;right=0;points=[[0,0.5],[1,0.5]];portConstraint=eastwest;" parent="dStMWNxRlU4IX113jJQJ-1072" vertex="1">
          <mxGeometry width="160" height="40" as="geometry" />
        </mxCell>
        <mxCell id="dStMWNxRlU4IX113jJQJ-1074" value="&lt;div&gt;{&quot;id&quot;:1,&lt;/div&gt;&lt;div&gt;&quot;sitename&quot;: }&lt;/div&gt;" style="shape=partialRectangle;html=1;whiteSpace=wrap;connectable=0;overflow=hidden;fillColor=none;top=0;left=0;bottom=0;right=0;" parent="dStMWNxRlU4IX113jJQJ-1073" vertex="1">
          <mxGeometry width="160" height="40" as="geometry" />
        </mxCell>
      </root>
    </mxGraphModel>
  </diagram>
</mxfile>
